<svg width="1000" height="1376" viewBox="0 0 1000 1376" xmlns="http://www.w3.org/2000/svg">
<rect x="0" y="0" width="1000" height="100%" fill="#F6F7FB"/>
<g transform="translate(36,18) scale(0.5)">
  <g transform="translate(0,12) scale(0.84)">
    <rect x="12" y="12" width="64" height="64" rx="17" fill="#4F46E5" stroke="#fff" stroke-width="2.5"/>
    <rect x="32" y="32" width="64" height="64" rx="17" fill="#3B82F6" stroke="#fff" stroke-width="2.5"/>
    <rect x="52" y="52" width="64" height="64" rx="17" fill="#06B6D4" stroke="#fff" stroke-width="2.5"/>
    <path d="M75 97 L93 71" stroke="#fff" stroke-width="6" stroke-linecap="round" opacity="0.92"/>
  </g>
  <g transform="translate(135,101)" fill="#0F172A">
<path transform="translate(0.00,0) scale(0.13200,-0.13200)" d="M304.7149658203125 -14Q232.9599609375 -14 175.1949462890625 16.12249755859375Q117.429931640625 46.2449951171875 83.919921875 103.2449951171875Q50.409912109375 160.2449951171875 50.409912109375 240.2650146484375V253.2850341796875Q50.409912109375 333.550048828125 83.919921875 390.42755126953125Q117.429931640625 447.3050537109375 175.1949462890625 477.42755126953125Q232.9599609375 507.550048828125 304.7149658203125 507.550048828125Q375.469970703125 507.550048828125 425.85748291015625 482.18255615234375Q476.2449951171875 456.8150634765625 506.7650146484375 413.56005859375Q537.2850341796875 370.3050537109375 546.550048828125 317.2650146484375L439.9847412109375 294.6949462890625Q435.73974609375 326.89990234375 420.269775390625 352.98236083984375Q404.7998046875 379.0648193359375 376.72735595703125 394.41229248046875Q348.6549072265625 409.759765625 306.97998046875 409.759765625Q265.3050537109375 409.759765625 231.98760986328125 391.2998046875Q198.670166015625 372.83984375 179.4552001953125 337.39990234375Q160.240234375 301.9599609375 160.240234375 251.530029296875V242.02001953125Q160.240234375 191.590087890625 179.4552001953125 156.150146484375Q198.670166015625 120.710205078125 231.98760986328125 102.250244140625Q265.3050537109375 83.790283203125 306.97998046875 83.790283203125Q369.6148681640625 83.790283203125 402.17730712890625 116.230224609375Q434.73974609375 148.670166015625 443.229736328125 199.610107421875L549.7950439453125 174.7750244140625Q537.7750244140625 123.2449951171875 507.010009765625 79.989990234375Q476.2449951171875 36.7349853515625 425.85748291015625 11.36749267578125Q375.469970703125 -14 304.7149658203125 -14Z"/>
<path transform="translate(81.88,0) scale(0.13200,-0.13200)" d="M227.1849365234375 -14Q174.6749267578125 -14 132.79742431640625 4.2550048828125Q90.919921875 22.510009765625 66.54241943359375 57.64251708984375Q42.1649169921875 92.7750244140625 42.1649169921875 143.0400390625Q42.1649169921875 193.550048828125 66.54241943359375 227.43756103515625Q90.919921875 261.3250732421875 133.80743408203125 278.45758056640625Q176.6949462890625 295.590087890625 231.2249755859375 295.590087890625H377.5147705078125V326.2850341796875Q377.5147705078125 367.1649169921875 352.5748291015625 392.23736572265625Q327.6348876953125 417.309814453125 275.469970703125 417.309814453125Q224.3050537109375 417.309814453125 197.75262451171875 393.35986328125Q171.2001953125 369.409912109375 162.730224609375 330.7550048828125L60.93994140625 364.3651123046875Q72.93994140625 403.590087890625 99.31744384765625 435.8250732421875Q125.6949462890625 468.06005859375 169.82745361328125 487.8050537109375Q213.9599609375 507.550048828125 276.97998046875 507.550048828125Q373.510009765625 507.550048828125 428.91754150390625 458.7950439453125Q484.3250732421875 410.0400390625 484.3250732421875 318.7550048828125V121.26025390625Q484.3250732421875 91.26025390625 512.3250732421875 91.26025390625H554.0400390625V0H474.93994140625Q439.409912109375 0 416.8798828125 18.12249755859375Q394.349853515625 36.2449951171875 394.349853515625 66.7349853515625V69.2049560546875H377.5548095703125Q371.349853515625 54.7550048828125 355.75738525390625 34.88751220703125Q340.1649169921875 15.02001953125 309.429931640625 0.510009765625Q278.6949462890625 -14 227.1849365234375 -14ZM244.7750244140625 76.240234375Q303.6549072265625 76.240234375 340.5848388671875 109.9051513671875Q377.5147705078125 143.570068359375 377.5147705078125 201.389892578125V211.8798828125H238.2650146484375Q199.10009765625 211.8798828125 175.54766845703125 195.04241943359375Q151.9952392578125 178.2049560546875 151.9952392578125 146.3050537109375Q151.9952392578125 114.4051513671875 176.54766845703125 95.32269287109375Q201.10009765625 76.240234375 244.7750244140625 76.240234375Z"/>
<path transform="translate(162.04,0) scale(0.13200,-0.13200)" d="M277.2249755859375 -14Q182.429931640625 -14 120.30743408203125 28.0Q58.1849365234375 70 44.93994140625 152.6549072265625L146.9752197265625 178Q154.22021484375 138.590087890625 172.68017578125 116.01763916015625Q191.14013671875 93.4451904296875 218.3350830078125 83.84271240234375Q245.530029296875 74.240234375 277.2249755859375 74.240234375Q325.1448974609375 74.240234375 349.94232177734375 91.9451904296875Q374.73974609375 109.650146484375 374.73974609375 137.550048828125Q374.73974609375 165.6949462890625 351.18731689453125 179.29742431640625Q327.6348876953125 192.89990234375 280.449951171875 201.389892578125L248.0400390625 207.1248779296875Q197.510009765625 216.6348876953125 155.97998046875 233.889892578125Q114.449951171875 251.1448974609375 89.55242919921875 281.409912109375Q64.6549072265625 311.6749267578125 64.6549072265625 358.9599609375Q64.6549072265625 430.2650146484375 117.55242919921875 468.90753173828125Q170.449951171875 507.550048828125 256.97998046875 507.550048828125Q339.97998046875 507.550048828125 393.87750244140625 470.42755126953125Q447.7750244140625 433.3050537109375 463.7950439453125 370.610107421875L361.73974609375 340.489990234375Q353.249755859375 383.389892578125 325.5648193359375 401.349853515625Q297.8798828125 419.309814453125 256.97998046875 419.309814453125Q216.3250732421875 419.309814453125 193.8951416015625 404.72735595703125Q171.4652099609375 390.1448974609375 171.4652099609375 363.489990234375Q171.4652099609375 335.570068359375 193.9151611328125 322.3551025390625Q216.3651123046875 309.14013671875 254.7750244140625 302.4051513671875L287.1849365234375 296.670166015625Q341.7149658203125 287.16015625 385.86749267578125 270.9051513671875Q430.02001953125 254.650146484375 455.7850341796875 224.76263427734375Q481.550048828125 194.8751220703125 481.550048828125 144.3450927734375Q481.550048828125 68.550048828125 426.15252685546875 27.2750244140625Q370.7550048828125 -14 277.2249755859375 -14Z"/>
<path transform="translate(235.34,0) scale(0.13200,-0.13200)" d="M304.7149658203125 -14Q232.9599609375 -14 175.1949462890625 16.12249755859375Q117.429931640625 46.2449951171875 83.919921875 103.2449951171875Q50.409912109375 160.2449951171875 50.409912109375 240.2650146484375V253.2850341796875Q50.409912109375 333.550048828125 83.919921875 390.42755126953125Q117.429931640625 447.3050537109375 175.1949462890625 477.42755126953125Q232.9599609375 507.550048828125 304.7149658203125 507.550048828125Q375.469970703125 507.550048828125 425.85748291015625 482.18255615234375Q476.2449951171875 456.8150634765625 506.7650146484375 413.56005859375Q537.2850341796875 370.3050537109375 546.550048828125 317.2650146484375L439.9847412109375 294.6949462890625Q435.73974609375 326.89990234375 420.269775390625 352.98236083984375Q404.7998046875 379.0648193359375 376.72735595703125 394.41229248046875Q348.6549072265625 409.759765625 306.97998046875 409.759765625Q265.3050537109375 409.759765625 231.98760986328125 391.2998046875Q198.670166015625 372.83984375 179.4552001953125 337.39990234375Q160.240234375 301.9599609375 160.240234375 251.530029296875V242.02001953125Q160.240234375 191.590087890625 179.4552001953125 156.150146484375Q198.670166015625 120.710205078125 231.98760986328125 102.250244140625Q265.3050537109375 83.790283203125 306.97998046875 83.790283203125Q369.6148681640625 83.790283203125 402.17730712890625 116.230224609375Q434.73974609375 148.670166015625 443.229736328125 199.610107421875L549.7950439453125 174.7750244140625Q537.7750244140625 123.2449951171875 507.010009765625 79.989990234375Q476.2449951171875 36.7349853515625 425.85748291015625 11.36749267578125Q375.469970703125 -14 304.7149658203125 -14Z"/>
<path transform="translate(317.22,0) scale(0.13200,-0.13200)" d="M227.1849365234375 -14Q174.6749267578125 -14 132.79742431640625 4.2550048828125Q90.919921875 22.510009765625 66.54241943359375 57.64251708984375Q42.1649169921875 92.7750244140625 42.1649169921875 143.0400390625Q42.1649169921875 193.550048828125 66.54241943359375 227.43756103515625Q90.919921875 261.3250732421875 133.80743408203125 278.45758056640625Q176.6949462890625 295.590087890625 231.2249755859375 295.590087890625H377.5147705078125V326.2850341796875Q377.5147705078125 367.1649169921875 352.5748291015625 392.23736572265625Q327.6348876953125 417.309814453125 275.469970703125 417.309814453125Q224.3050537109375 417.309814453125 197.75262451171875 393.35986328125Q171.2001953125 369.409912109375 162.730224609375 330.7550048828125L60.93994140625 364.3651123046875Q72.93994140625 403.590087890625 99.31744384765625 435.8250732421875Q125.6949462890625 468.06005859375 169.82745361328125 487.8050537109375Q213.9599609375 507.550048828125 276.97998046875 507.550048828125Q373.510009765625 507.550048828125 428.91754150390625 458.7950439453125Q484.3250732421875 410.0400390625 484.3250732421875 318.7550048828125V121.26025390625Q484.3250732421875 91.26025390625 512.3250732421875 91.26025390625H554.0400390625V0H474.93994140625Q439.409912109375 0 416.8798828125 18.12249755859375Q394.349853515625 36.2449951171875 394.349853515625 66.7349853515625V69.2049560546875H377.5548095703125Q371.349853515625 54.7550048828125 355.75738525390625 34.88751220703125Q340.1649169921875 15.02001953125 309.429931640625 0.510009765625Q278.6949462890625 -14 227.1849365234375 -14ZM244.7750244140625 76.240234375Q303.6549072265625 76.240234375 340.5848388671875 109.9051513671875Q377.5147705078125 143.570068359375 377.5147705078125 201.389892578125V211.8798828125H238.2650146484375Q199.10009765625 211.8798828125 175.54766845703125 195.04241943359375Q151.9952392578125 178.2049560546875 151.9952392578125 146.3050537109375Q151.9952392578125 114.4051513671875 176.54766845703125 95.32269287109375Q201.10009765625 76.240234375 244.7750244140625 76.240234375Z"/>
<path transform="translate(397.39,0) scale(0.13200,-0.13200)" d="M276.85986328125 -14Q216.389892578125 -14 164.52239990234375 15.7449951171875Q112.6549072265625 45.489990234375 81.53240966796875 102.36749267578125Q50.409912109375 159.2449951171875 50.409912109375 239.2650146484375V254.2850341796875Q50.409912109375 334.3050537109375 81.409912109375 391.18255615234375Q112.409912109375 448.06005859375 164.02239990234375 477.8050537109375Q215.6348876953125 507.550048828125 276.85986328125 507.550048828125Q324.0648193359375 507.550048828125 356.15728759765625 496.070068359375Q388.249755859375 484.590087890625 408.35223388671875 466.99761962890625Q428.4547119140625 449.4051513671875 439.189697265625 429.690185546875H455.7197265625V700H565.550048828125V0H457.7197265625V67.1048583984375H441.189697265625Q423.209716796875 36.1649169921875 385.5047607421875 11.08245849609375Q347.7998046875 -14 276.85986328125 -14ZM308.97998046875 82.2802734375Q373.1048583984375 82.2802734375 415.16729736328125 123.57769775390625Q457.229736328125 164.8751220703125 457.229736328125 242.02001953125V251.530029296875Q457.229736328125 328.6749267578125 415.5447998046875 369.97235107421875Q373.85986328125 411.269775390625 308.97998046875 411.269775390625Q245.10009765625 411.269775390625 202.9151611328125 369.97235107421875Q160.730224609375 328.6749267578125 160.730224609375 251.530029296875V242.02001953125Q160.730224609375 164.8751220703125 202.9151611328125 123.57769775390625Q245.10009765625 82.2802734375 308.97998046875 82.2802734375Z"/>
<path transform="translate(485.87,0) scale(0.13200,-0.13200)" d="M299.919921875 -14Q225.6749267578125 -14 169.419921875 17.5Q113.1649169921875 49 81.78741455078125 106.37750244140625Q50.409912109375 163.7550048828125 50.409912109375 240.7750244140625V252.7750244140625Q50.409912109375 330.0400390625 81.409912109375 387.2950439453125Q112.409912109375 444.550048828125 168.04241943359375 476.050048828125Q223.6749267578125 507.550048828125 296.6949462890625 507.550048828125Q368.469970703125 507.550048828125 422.10247802734375 476.030029296875Q475.7349853515625 444.510009765625 505.7349853515625 387.989990234375Q535.7349853515625 331.469970703125 535.7349853515625 255.9599609375V215.6549072265625H161.750244140625Q163.9952392578125 154.8551025390625 204.03765869140625 118.56768798828125Q244.080078125 82.2802734375 302.93994140625 82.2802734375Q359.6148681640625 82.2802734375 387.67730712890625 107.240234375Q415.73974609375 132.2001953125 430.4547119140625 164.3651123046875L521.449951171875 117.7149658203125Q507.2049560546875 90 480.7049560546875 59.2550048828125Q454.2049560546875 28.510009765625 410.6949462890625 7.2550048828125Q367.1849365234375 -14 299.919921875 -14ZM162.750244140625 299.3651123046875H424.149658203125Q420.149658203125 351.1849365234375 385.60723876953125 381.22735595703125Q351.0648193359375 411.269775390625 295.93994140625 411.269775390625Q239.550048828125 411.269775390625 205.14013671875 381.22735595703125Q170.730224609375 351.1849365234375 162.750244140625 299.3651123046875Z"/>
<path transform="translate(566.69,0) scale(0.13200,-0.13200)" d="M74.409912109375 0V493.550048828125H182.240234375V436.3250732421875H198.770263671875Q210.5052490234375 467.06005859375 236.4952392578125 481.3050537109375Q262.4852294921875 495.550048828125 300.16015625 495.550048828125H359.4251708984375V397.269775390625H296.9351806640625Q247.22021484375 397.269775390625 215.730224609375 370.42230224609375Q184.240234375 343.5748291015625 184.240234375 287.389892578125V0Z"/>
<path transform="translate(622.04,0) scale(0.13200,-0.13200)" d="M130.1248779296875 -200V-103.7197265625H403.5548095703125Q432.0447998046875 -103.7197265625 432.0447998046875 -73.7197265625V69.6549072265625H415.5147705078125Q406.5347900390625 50.93994140625 388.43231201171875 32.83746337890625Q370.329833984375 14.7349853515625 339.98236083984375 3.12249755859375Q309.6348876953125 -8.489990234375 262.919921875 -8.489990234375Q206.389892578125 -8.489990234375 162.6448974609375 16.90753173828125Q118.89990234375 42.3050537109375 94.28741455078125 88.570068359375Q69.6749267578125 134.8350830078125 69.6749267578125 197.3050537109375V493.550048828125H179.5052490234375V205.8350830078125Q179.5052490234375 144.2001953125 210.06768798828125 114.4852294921875Q240.630126953125 84.770263671875 295.550048828125 84.770263671875Q357.7149658203125 84.770263671875 394.1248779296875 125.84271240234375Q430.5347900390625 166.9151611328125 430.5347900390625 243.510009765625V493.550048828125H540.3651123046875V-96.81982421875Q540.3651123046875 -144.1448974609375 512.9375610351562 -172.07244873046875Q485.510009765625 -200 438.2049560546875 -200Z"/>
  </g>
</g>
<text x="964" y="52" font-family="ui-sans-serif, 'DejaVu Sans', system-ui, sans-serif" font-size="15" font-weight="500" letter-spacing="0.5" fill="#64748B" text-anchor="end">logo system</text>
<text x="964" y="76" font-family="ui-sans-serif, 'DejaVu Sans', system-ui, sans-serif" font-size="13" font-weight="400" letter-spacing="0.3" fill="#64748B" text-anchor="end">CSS-native context canvas</text>
<rect x="36" y="128" width="928" height="232" rx="20" fill="#fff" stroke="#E6E9F2" stroke-width="1.5"/>
<text x="62" y="166" font-family="ui-sans-serif, 'DejaVu Sans', system-ui, sans-serif" font-size="15" font-weight="700" letter-spacing="1.5" fill="#64748B" text-anchor="start">PRIMARY MARK</text>
<g transform="translate(106,190) scale(1.15)">
  <rect x="12" y="12" width="64" height="64" rx="17" fill="#4F46E5" stroke="#fff" stroke-width="2.5"/>
  <rect x="32" y="32" width="64" height="64" rx="17" fill="#3B82F6" stroke="#fff" stroke-width="2.5"/>
  <rect x="52" y="52" width="64" height="64" rx="17" fill="#06B6D4" stroke="#fff" stroke-width="2.5"/>
  <path d="M75 97 L93 71" stroke="#fff" stroke-width="6" stroke-linecap="round" opacity="0.92"/>
</g>
<rect x="556" y="150" width="384" height="188" rx="16" fill="#0B1220"/>
<g transform="translate(674.5,170.5) scale(1.15)">
  <rect x="12" y="12" width="64" height="64" rx="17" fill="#4F46E5" stroke="#fff" stroke-width="2.5"/>
  <rect x="32" y="32" width="64" height="64" rx="17" fill="#3B82F6" stroke="#fff" stroke-width="2.5"/>
  <rect x="52" y="52" width="64" height="64" rx="17" fill="#06B6D4" stroke="#fff" stroke-width="2.5"/>
  <path d="M75 97 L93 71" stroke="#fff" stroke-width="6" stroke-linecap="round" opacity="0.92"/>
</g>
<text x="574" y="322" font-family="ui-sans-serif, 'DejaVu Sans', system-ui, sans-serif" font-size="12" font-weight="500" letter-spacing="0.5" fill="#94A3B8" text-anchor="start">on dark</text>
<rect x="36" y="384" width="928" height="148" rx="20" fill="#fff" stroke="#E6E9F2" stroke-width="1.5"/>
<g transform="translate(237.43,414) scale(0.62)">
  <g transform="translate(0,12) scale(0.84)">
    <rect x="12" y="12" width="64" height="64" rx="17" fill="#4F46E5" stroke="#fff" stroke-width="2.5"/>
    <rect x="32" y="32" width="64" height="64" rx="17" fill="#3B82F6" stroke="#fff" stroke-width="2.5"/>
    <rect x="52" y="52" width="64" height="64" rx="17" fill="#06B6D4" stroke="#fff" stroke-width="2.5"/>
    <path d="M75 97 L93 71" stroke="#fff" stroke-width="6" stroke-linecap="round" opacity="0.92"/>
  </g>
  <g transform="translate(135,101)" fill="#0F172A">
<path transform="translate(0.00,0) scale(0.13200,-0.13200)" d="M304.7149658203125 -14Q232.9599609375 -14 175.1949462890625 16.12249755859375Q117.429931640625 46.2449951171875 83.919921875 103.2449951171875Q50.409912109375 160.2449951171875 50.409912109375 240.2650146484375V253.2850341796875Q50.409912109375 333.550048828125 83.919921875 390.42755126953125Q117.429931640625 447.3050537109375 175.1949462890625 477.42755126953125Q232.9599609375 507.550048828125 304.7149658203125 507.550048828125Q375.469970703125 507.550048828125 425.85748291015625 482.18255615234375Q476.2449951171875 456.8150634765625 506.7650146484375 413.56005859375Q537.2850341796875 370.3050537109375 546.550048828125 317.2650146484375L439.9847412109375 294.6949462890625Q435.73974609375 326.89990234375 420.269775390625 352.98236083984375Q404.7998046875 379.0648193359375 376.72735595703125 394.41229248046875Q348.6549072265625 409.759765625 306.97998046875 409.759765625Q265.3050537109375 409.759765625 231.98760986328125 391.2998046875Q198.670166015625 372.83984375 179.4552001953125 337.39990234375Q160.240234375 301.9599609375 160.240234375 251.530029296875V242.02001953125Q160.240234375 191.590087890625 179.4552001953125 156.150146484375Q198.670166015625 120.710205078125 231.98760986328125 102.250244140625Q265.3050537109375 83.790283203125 306.97998046875 83.790283203125Q369.6148681640625 83.790283203125 402.17730712890625 116.230224609375Q434.73974609375 148.670166015625 443.229736328125 199.610107421875L549.7950439453125 174.7750244140625Q537.7750244140625 123.2449951171875 507.010009765625 79.989990234375Q476.2449951171875 36.7349853515625 425.85748291015625 11.36749267578125Q375.469970703125 -14 304.7149658203125 -14Z"/>
<path transform="translate(81.88,0) scale(0.13200,-0.13200)" d="M227.1849365234375 -14Q174.6749267578125 -14 132.79742431640625 4.2550048828125Q90.919921875 22.510009765625 66.54241943359375 57.64251708984375Q42.1649169921875 92.7750244140625 42.1649169921875 143.0400390625Q42.1649169921875 193.550048828125 66.54241943359375 227.43756103515625Q90.919921875 261.3250732421875 133.80743408203125 278.45758056640625Q176.6949462890625 295.590087890625 231.2249755859375 295.590087890625H377.5147705078125V326.2850341796875Q377.5147705078125 367.1649169921875 352.5748291015625 392.23736572265625Q327.6348876953125 417.309814453125 275.469970703125 417.309814453125Q224.3050537109375 417.309814453125 197.75262451171875 393.35986328125Q171.2001953125 369.409912109375 162.730224609375 330.7550048828125L60.93994140625 364.3651123046875Q72.93994140625 403.590087890625 99.31744384765625 435.8250732421875Q125.6949462890625 468.06005859375 169.82745361328125 487.8050537109375Q213.9599609375 507.550048828125 276.97998046875 507.550048828125Q373.510009765625 507.550048828125 428.91754150390625 458.7950439453125Q484.3250732421875 410.0400390625 484.3250732421875 318.7550048828125V121.26025390625Q484.3250732421875 91.26025390625 512.3250732421875 91.26025390625H554.0400390625V0H474.93994140625Q439.409912109375 0 416.8798828125 18.12249755859375Q394.349853515625 36.2449951171875 394.349853515625 66.7349853515625V69.2049560546875H377.5548095703125Q371.349853515625 54.7550048828125 355.75738525390625 34.88751220703125Q340.1649169921875 15.02001953125 309.429931640625 0.510009765625Q278.6949462890625 -14 227.1849365234375 -14ZM244.7750244140625 76.240234375Q303.6549072265625 76.240234375 340.5848388671875 109.9051513671875Q377.5147705078125 143.570068359375 377.5147705078125 201.389892578125V211.8798828125H238.2650146484375Q199.10009765625 211.8798828125 175.54766845703125 195.04241943359375Q151.9952392578125 178.2049560546875 151.9952392578125 146.3050537109375Q151.9952392578125 114.4051513671875 176.54766845703125 95.32269287109375Q201.10009765625 76.240234375 244.7750244140625 76.240234375Z"/>
<path transform="translate(162.04,0) scale(0.13200,-0.13200)" d="M277.2249755859375 -14Q182.429931640625 -14 120.30743408203125 28.0Q58.1849365234375 70 44.93994140625 152.6549072265625L146.9752197265625 178Q154.22021484375 138.590087890625 172.68017578125 116.01763916015625Q191.14013671875 93.4451904296875 218.3350830078125 83.84271240234375Q245.530029296875 74.240234375 277.2249755859375 74.240234375Q325.1448974609375 74.240234375 349.94232177734375 91.9451904296875Q374.73974609375 109.650146484375 374.73974609375 137.550048828125Q374.73974609375 165.6949462890625 351.18731689453125 179.29742431640625Q327.6348876953125 192.89990234375 280.449951171875 201.389892578125L248.0400390625 207.1248779296875Q197.510009765625 216.6348876953125 155.97998046875 233.889892578125Q114.449951171875 251.1448974609375 89.55242919921875 281.409912109375Q64.6549072265625 311.6749267578125 64.6549072265625 358.9599609375Q64.6549072265625 430.2650146484375 117.55242919921875 468.90753173828125Q170.449951171875 507.550048828125 256.97998046875 507.550048828125Q339.97998046875 507.550048828125 393.87750244140625 470.42755126953125Q447.7750244140625 433.3050537109375 463.7950439453125 370.610107421875L361.73974609375 340.489990234375Q353.249755859375 383.389892578125 325.5648193359375 401.349853515625Q297.8798828125 419.309814453125 256.97998046875 419.309814453125Q216.3250732421875 419.309814453125 193.8951416015625 404.72735595703125Q171.4652099609375 390.1448974609375 171.4652099609375 363.489990234375Q171.4652099609375 335.570068359375 193.9151611328125 322.3551025390625Q216.3651123046875 309.14013671875 254.7750244140625 302.4051513671875L287.1849365234375 296.670166015625Q341.7149658203125 287.16015625 385.86749267578125 270.9051513671875Q430.02001953125 254.650146484375 455.7850341796875 224.76263427734375Q481.550048828125 194.8751220703125 481.550048828125 144.3450927734375Q481.550048828125 68.550048828125 426.15252685546875 27.2750244140625Q370.7550048828125 -14 277.2249755859375 -14Z"/>
<path transform="translate(235.34,0) scale(0.13200,-0.13200)" d="M304.7149658203125 -14Q232.9599609375 -14 175.1949462890625 16.12249755859375Q117.429931640625 46.2449951171875 83.919921875 103.2449951171875Q50.409912109375 160.2449951171875 50.409912109375 240.2650146484375V253.2850341796875Q50.409912109375 333.550048828125 83.919921875 390.42755126953125Q117.429931640625 447.3050537109375 175.1949462890625 477.42755126953125Q232.9599609375 507.550048828125 304.7149658203125 507.550048828125Q375.469970703125 507.550048828125 425.85748291015625 482.18255615234375Q476.2449951171875 456.8150634765625 506.7650146484375 413.56005859375Q537.2850341796875 370.3050537109375 546.550048828125 317.2650146484375L439.9847412109375 294.6949462890625Q435.73974609375 326.89990234375 420.269775390625 352.98236083984375Q404.7998046875 379.0648193359375 376.72735595703125 394.41229248046875Q348.6549072265625 409.759765625 306.97998046875 409.759765625Q265.3050537109375 409.759765625 231.98760986328125 391.2998046875Q198.670166015625 372.83984375 179.4552001953125 337.39990234375Q160.240234375 301.9599609375 160.240234375 251.530029296875V242.02001953125Q160.240234375 191.590087890625 179.4552001953125 156.150146484375Q198.670166015625 120.710205078125 231.98760986328125 102.250244140625Q265.3050537109375 83.790283203125 306.97998046875 83.790283203125Q369.6148681640625 83.790283203125 402.17730712890625 116.230224609375Q434.73974609375 148.670166015625 443.229736328125 199.610107421875L549.7950439453125 174.7750244140625Q537.7750244140625 123.2449951171875 507.010009765625 79.989990234375Q476.2449951171875 36.7349853515625 425.85748291015625 11.36749267578125Q375.469970703125 -14 304.7149658203125 -14Z"/>
<path transform="translate(317.22,0) scale(0.13200,-0.13200)" d="M227.1849365234375 -14Q174.6749267578125 -14 132.79742431640625 4.2550048828125Q90.919921875 22.510009765625 66.54241943359375 57.64251708984375Q42.1649169921875 92.7750244140625 42.1649169921875 143.0400390625Q42.1649169921875 193.550048828125 66.54241943359375 227.43756103515625Q90.919921875 261.3250732421875 133.80743408203125 278.45758056640625Q176.6949462890625 295.590087890625 231.2249755859375 295.590087890625H377.5147705078125V326.2850341796875Q377.5147705078125 367.1649169921875 352.5748291015625 392.23736572265625Q327.6348876953125 417.309814453125 275.469970703125 417.309814453125Q224.3050537109375 417.309814453125 197.75262451171875 393.35986328125Q171.2001953125 369.409912109375 162.730224609375 330.7550048828125L60.93994140625 364.3651123046875Q72.93994140625 403.590087890625 99.31744384765625 435.8250732421875Q125.6949462890625 468.06005859375 169.82745361328125 487.8050537109375Q213.9599609375 507.550048828125 276.97998046875 507.550048828125Q373.510009765625 507.550048828125 428.91754150390625 458.7950439453125Q484.3250732421875 410.0400390625 484.3250732421875 318.7550048828125V121.26025390625Q484.3250732421875 91.26025390625 512.3250732421875 91.26025390625H554.0400390625V0H474.93994140625Q439.409912109375 0 416.8798828125 18.12249755859375Q394.349853515625 36.2449951171875 394.349853515625 66.7349853515625V69.2049560546875H377.5548095703125Q371.349853515625 54.7550048828125 355.75738525390625 34.88751220703125Q340.1649169921875 15.02001953125 309.429931640625 0.510009765625Q278.6949462890625 -14 227.1849365234375 -14ZM244.7750244140625 76.240234375Q303.6549072265625 76.240234375 340.5848388671875 109.9051513671875Q377.5147705078125 143.570068359375 377.5147705078125 201.389892578125V211.8798828125H238.2650146484375Q199.10009765625 211.8798828125 175.54766845703125 195.04241943359375Q151.9952392578125 178.2049560546875 151.9952392578125 146.3050537109375Q151.9952392578125 114.4051513671875 176.54766845703125 95.32269287109375Q201.10009765625 76.240234375 244.7750244140625 76.240234375Z"/>
<path transform="translate(397.39,0) scale(0.13200,-0.13200)" d="M276.85986328125 -14Q216.389892578125 -14 164.52239990234375 15.7449951171875Q112.6549072265625 45.489990234375 81.53240966796875 102.36749267578125Q50.409912109375 159.2449951171875 50.409912109375 239.2650146484375V254.2850341796875Q50.409912109375 334.3050537109375 81.409912109375 391.18255615234375Q112.409912109375 448.06005859375 164.02239990234375 477.8050537109375Q215.6348876953125 507.550048828125 276.85986328125 507.550048828125Q324.0648193359375 507.550048828125 356.15728759765625 496.070068359375Q388.249755859375 484.590087890625 408.35223388671875 466.99761962890625Q428.4547119140625 449.4051513671875 439.189697265625 429.690185546875H455.7197265625V700H565.550048828125V0H457.7197265625V67.1048583984375H441.189697265625Q423.209716796875 36.1649169921875 385.5047607421875 11.08245849609375Q347.7998046875 -14 276.85986328125 -14ZM308.97998046875 82.2802734375Q373.1048583984375 82.2802734375 415.16729736328125 123.57769775390625Q457.229736328125 164.8751220703125 457.229736328125 242.02001953125V251.530029296875Q457.229736328125 328.6749267578125 415.5447998046875 369.97235107421875Q373.85986328125 411.269775390625 308.97998046875 411.269775390625Q245.10009765625 411.269775390625 202.9151611328125 369.97235107421875Q160.730224609375 328.6749267578125 160.730224609375 251.530029296875V242.02001953125Q160.730224609375 164.8751220703125 202.9151611328125 123.57769775390625Q245.10009765625 82.2802734375 308.97998046875 82.2802734375Z"/>
<path transform="translate(485.87,0) scale(0.13200,-0.13200)" d="M299.919921875 -14Q225.6749267578125 -14 169.419921875 17.5Q113.1649169921875 49 81.78741455078125 106.37750244140625Q50.409912109375 163.7550048828125 50.409912109375 240.7750244140625V252.7750244140625Q50.409912109375 330.0400390625 81.409912109375 387.2950439453125Q112.409912109375 444.550048828125 168.04241943359375 476.050048828125Q223.6749267578125 507.550048828125 296.6949462890625 507.550048828125Q368.469970703125 507.550048828125 422.10247802734375 476.030029296875Q475.7349853515625 444.510009765625 505.7349853515625 387.989990234375Q535.7349853515625 331.469970703125 535.7349853515625 255.9599609375V215.6549072265625H161.750244140625Q163.9952392578125 154.8551025390625 204.03765869140625 118.56768798828125Q244.080078125 82.2802734375 302.93994140625 82.2802734375Q359.6148681640625 82.2802734375 387.67730712890625 107.240234375Q415.73974609375 132.2001953125 430.4547119140625 164.3651123046875L521.449951171875 117.7149658203125Q507.2049560546875 90 480.7049560546875 59.2550048828125Q454.2049560546875 28.510009765625 410.6949462890625 7.2550048828125Q367.1849365234375 -14 299.919921875 -14ZM162.750244140625 299.3651123046875H424.149658203125Q420.149658203125 351.1849365234375 385.60723876953125 381.22735595703125Q351.0648193359375 411.269775390625 295.93994140625 411.269775390625Q239.550048828125 411.269775390625 205.14013671875 381.22735595703125Q170.730224609375 351.1849365234375 162.750244140625 299.3651123046875Z"/>
<path transform="translate(566.69,0) scale(0.13200,-0.13200)" d="M74.409912109375 0V493.550048828125H182.240234375V436.3250732421875H198.770263671875Q210.5052490234375 467.06005859375 236.4952392578125 481.3050537109375Q262.4852294921875 495.550048828125 300.16015625 495.550048828125H359.4251708984375V397.269775390625H296.9351806640625Q247.22021484375 397.269775390625 215.730224609375 370.42230224609375Q184.240234375 343.5748291015625 184.240234375 287.389892578125V0Z"/>
<path transform="translate(622.04,0) scale(0.13200,-0.13200)" d="M130.1248779296875 -200V-103.7197265625H403.5548095703125Q432.0447998046875 -103.7197265625 432.0447998046875 -73.7197265625V69.6549072265625H415.5147705078125Q406.5347900390625 50.93994140625 388.43231201171875 32.83746337890625Q370.329833984375 14.7349853515625 339.98236083984375 3.12249755859375Q309.6348876953125 -8.489990234375 262.919921875 -8.489990234375Q206.389892578125 -8.489990234375 162.6448974609375 16.90753173828125Q118.89990234375 42.3050537109375 94.28741455078125 88.570068359375Q69.6749267578125 134.8350830078125 69.6749267578125 197.3050537109375V493.550048828125H179.5052490234375V205.8350830078125Q179.5052490234375 144.2001953125 210.06768798828125 114.4852294921875Q240.630126953125 84.770263671875 295.550048828125 84.770263671875Q357.7149658203125 84.770263671875 394.1248779296875 125.84271240234375Q430.5347900390625 166.9151611328125 430.5347900390625 243.510009765625V493.550048828125H540.3651123046875V-96.81982421875Q540.3651123046875 -144.1448974609375 512.9375610351562 -172.07244873046875Q485.510009765625 -200 438.2049560546875 -200Z"/>
  </g>
</g>
<rect x="36" y="556" width="928" height="148" rx="20" fill="#0B1220" stroke="#0B1220" stroke-width="1.5"/>
<g transform="translate(237.43,586) scale(0.62)">
  <g transform="translate(0,12) scale(0.84)">
    <rect x="12" y="12" width="64" height="64" rx="17" fill="#4F46E5" stroke="#fff" stroke-width="2.5"/>
    <rect x="32" y="32" width="64" height="64" rx="17" fill="#3B82F6" stroke="#fff" stroke-width="2.5"/>
    <rect x="52" y="52" width="64" height="64" rx="17" fill="#06B6D4" stroke="#fff" stroke-width="2.5"/>
    <path d="M75 97 L93 71" stroke="#fff" stroke-width="6" stroke-linecap="round" opacity="0.92"/>
  </g>
  <g transform="translate(135,101)" fill="#fff">
<path transform="translate(0.00,0) scale(0.13200,-0.13200)" d="M304.7149658203125 -14Q232.9599609375 -14 175.1949462890625 16.12249755859375Q117.429931640625 46.2449951171875 83.919921875 103.2449951171875Q50.409912109375 160.2449951171875 50.409912109375 240.2650146484375V253.2850341796875Q50.409912109375 333.550048828125 83.919921875 390.42755126953125Q117.429931640625 447.3050537109375 175.1949462890625 477.42755126953125Q232.9599609375 507.550048828125 304.7149658203125 507.550048828125Q375.469970703125 507.550048828125 425.85748291015625 482.18255615234375Q476.2449951171875 456.8150634765625 506.7650146484375 413.56005859375Q537.2850341796875 370.3050537109375 546.550048828125 317.2650146484375L439.9847412109375 294.6949462890625Q435.73974609375 326.89990234375 420.269775390625 352.98236083984375Q404.7998046875 379.0648193359375 376.72735595703125 394.41229248046875Q348.6549072265625 409.759765625 306.97998046875 409.759765625Q265.3050537109375 409.759765625 231.98760986328125 391.2998046875Q198.670166015625 372.83984375 179.4552001953125 337.39990234375Q160.240234375 301.9599609375 160.240234375 251.530029296875V242.02001953125Q160.240234375 191.590087890625 179.4552001953125 156.150146484375Q198.670166015625 120.710205078125 231.98760986328125 102.250244140625Q265.3050537109375 83.790283203125 306.97998046875 83.790283203125Q369.6148681640625 83.790283203125 402.17730712890625 116.230224609375Q434.73974609375 148.670166015625 443.229736328125 199.610107421875L549.7950439453125 174.7750244140625Q537.7750244140625 123.2449951171875 507.010009765625 79.989990234375Q476.2449951171875 36.7349853515625 425.85748291015625 11.36749267578125Q375.469970703125 -14 304.7149658203125 -14Z"/>
<path transform="translate(81.88,0) scale(0.13200,-0.13200)" d="M227.1849365234375 -14Q174.6749267578125 -14 132.79742431640625 4.2550048828125Q90.919921875 22.510009765625 66.54241943359375 57.64251708984375Q42.1649169921875 92.7750244140625 42.1649169921875 143.0400390625Q42.1649169921875 193.550048828125 66.54241943359375 227.43756103515625Q90.919921875 261.3250732421875 133.80743408203125 278.45758056640625Q176.6949462890625 295.590087890625 231.2249755859375 295.590087890625H377.5147705078125V326.2850341796875Q377.5147705078125 367.1649169921875 352.5748291015625 392.23736572265625Q327.6348876953125 417.309814453125 275.469970703125 417.309814453125Q224.3050537109375 417.309814453125 197.75262451171875 393.35986328125Q171.2001953125 369.409912109375 162.730224609375 330.7550048828125L60.93994140625 364.3651123046875Q72.93994140625 403.590087890625 99.31744384765625 435.8250732421875Q125.6949462890625 468.06005859375 169.82745361328125 487.8050537109375Q213.9599609375 507.550048828125 276.97998046875 507.550048828125Q373.510009765625 507.550048828125 428.91754150390625 458.7950439453125Q484.3250732421875 410.0400390625 484.3250732421875 318.7550048828125V121.26025390625Q484.3250732421875 91.26025390625 512.3250732421875 91.26025390625H554.0400390625V0H474.93994140625Q439.409912109375 0 416.8798828125 18.12249755859375Q394.349853515625 36.2449951171875 394.349853515625 66.7349853515625V69.2049560546875H377.5548095703125Q371.349853515625 54.7550048828125 355.75738525390625 34.88751220703125Q340.1649169921875 15.02001953125 309.429931640625 0.510009765625Q278.6949462890625 -14 227.1849365234375 -14ZM244.7750244140625 76.240234375Q303.6549072265625 76.240234375 340.5848388671875 109.9051513671875Q377.5147705078125 143.570068359375 377.5147705078125 201.389892578125V211.8798828125H238.2650146484375Q199.10009765625 211.8798828125 175.54766845703125 195.04241943359375Q151.9952392578125 178.2049560546875 151.9952392578125 146.3050537109375Q151.9952392578125 114.4051513671875 176.54766845703125 95.32269287109375Q201.10009765625 76.240234375 244.7750244140625 76.240234375Z"/>
<path transform="translate(162.04,0) scale(0.13200,-0.13200)" d="M277.2249755859375 -14Q182.429931640625 -14 120.30743408203125 28.0Q58.1849365234375 70 44.93994140625 152.6549072265625L146.9752197265625 178Q154.22021484375 138.590087890625 172.68017578125 116.01763916015625Q191.14013671875 93.4451904296875 218.3350830078125 83.84271240234375Q245.530029296875 74.240234375 277.2249755859375 74.240234375Q325.1448974609375 74.240234375 349.94232177734375 91.9451904296875Q374.73974609375 109.650146484375 374.73974609375 137.550048828125Q374.73974609375 165.6949462890625 351.18731689453125 179.29742431640625Q327.6348876953125 192.89990234375 280.449951171875 201.389892578125L248.0400390625 207.1248779296875Q197.510009765625 216.6348876953125 155.97998046875 233.889892578125Q114.449951171875 251.1448974609375 89.55242919921875 281.409912109375Q64.6549072265625 311.6749267578125 64.6549072265625 358.9599609375Q64.6549072265625 430.2650146484375 117.55242919921875 468.90753173828125Q170.449951171875 507.550048828125 256.97998046875 507.550048828125Q339.97998046875 507.550048828125 393.87750244140625 470.42755126953125Q447.7750244140625 433.3050537109375 463.7950439453125 370.610107421875L361.73974609375 340.489990234375Q353.249755859375 383.389892578125 325.5648193359375 401.349853515625Q297.8798828125 419.309814453125 256.97998046875 419.309814453125Q216.3250732421875 419.309814453125 193.8951416015625 404.72735595703125Q171.4652099609375 390.1448974609375 171.4652099609375 363.489990234375Q171.4652099609375 335.570068359375 193.9151611328125 322.3551025390625Q216.3651123046875 309.14013671875 254.7750244140625 302.4051513671875L287.1849365234375 296.670166015625Q341.7149658203125 287.16015625 385.86749267578125 270.9051513671875Q430.02001953125 254.650146484375 455.7850341796875 224.76263427734375Q481.550048828125 194.8751220703125 481.550048828125 144.3450927734375Q481.550048828125 68.550048828125 426.15252685546875 27.2750244140625Q370.7550048828125 -14 277.2249755859375 -14Z"/>
<path transform="translate(235.34,0) scale(0.13200,-0.13200)" d="M304.7149658203125 -14Q232.9599609375 -14 175.1949462890625 16.12249755859375Q117.429931640625 46.2449951171875 83.919921875 103.2449951171875Q50.409912109375 160.2449951171875 50.409912109375 240.2650146484375V253.2850341796875Q50.409912109375 333.550048828125 83.919921875 390.42755126953125Q117.429931640625 447.3050537109375 175.1949462890625 477.42755126953125Q232.9599609375 507.550048828125 304.7149658203125 507.550048828125Q375.469970703125 507.550048828125 425.85748291015625 482.18255615234375Q476.2449951171875 456.8150634765625 506.7650146484375 413.56005859375Q537.2850341796875 370.3050537109375 546.550048828125 317.2650146484375L439.9847412109375 294.6949462890625Q435.73974609375 326.89990234375 420.269775390625 352.98236083984375Q404.7998046875 379.0648193359375 376.72735595703125 394.41229248046875Q348.6549072265625 409.759765625 306.97998046875 409.759765625Q265.3050537109375 409.759765625 231.98760986328125 391.2998046875Q198.670166015625 372.83984375 179.4552001953125 337.39990234375Q160.240234375 301.9599609375 160.240234375 251.530029296875V242.02001953125Q160.240234375 191.590087890625 179.4552001953125 156.150146484375Q198.670166015625 120.710205078125 231.98760986328125 102.250244140625Q265.3050537109375 83.790283203125 306.97998046875 83.790283203125Q369.6148681640625 83.790283203125 402.17730712890625 116.230224609375Q434.73974609375 148.670166015625 443.229736328125 199.610107421875L549.7950439453125 174.7750244140625Q537.7750244140625 123.2449951171875 507.010009765625 79.989990234375Q476.2449951171875 36.7349853515625 425.85748291015625 11.36749267578125Q375.469970703125 -14 304.7149658203125 -14Z"/>
<path transform="translate(317.22,0) scale(0.13200,-0.13200)" d="M227.1849365234375 -14Q174.6749267578125 -14 132.79742431640625 4.2550048828125Q90.919921875 22.510009765625 66.54241943359375 57.64251708984375Q42.1649169921875 92.7750244140625 42.1649169921875 143.0400390625Q42.1649169921875 193.550048828125 66.54241943359375 227.43756103515625Q90.919921875 261.3250732421875 133.80743408203125 278.45758056640625Q176.6949462890625 295.590087890625 231.2249755859375 295.590087890625H377.5147705078125V326.2850341796875Q377.5147705078125 367.1649169921875 352.5748291015625 392.23736572265625Q327.6348876953125 417.309814453125 275.469970703125 417.309814453125Q224.3050537109375 417.309814453125 197.75262451171875 393.35986328125Q171.2001953125 369.409912109375 162.730224609375 330.7550048828125L60.93994140625 364.3651123046875Q72.93994140625 403.590087890625 99.31744384765625 435.8250732421875Q125.6949462890625 468.06005859375 169.82745361328125 487.8050537109375Q213.9599609375 507.550048828125 276.97998046875 507.550048828125Q373.510009765625 507.550048828125 428.91754150390625 458.7950439453125Q484.3250732421875 410.0400390625 484.3250732421875 318.7550048828125V121.26025390625Q484.3250732421875 91.26025390625 512.3250732421875 91.26025390625H554.0400390625V0H474.93994140625Q439.409912109375 0 416.8798828125 18.12249755859375Q394.349853515625 36.2449951171875 394.349853515625 66.7349853515625V69.2049560546875H377.5548095703125Q371.349853515625 54.7550048828125 355.75738525390625 34.88751220703125Q340.1649169921875 15.02001953125 309.429931640625 0.510009765625Q278.6949462890625 -14 227.1849365234375 -14ZM244.7750244140625 76.240234375Q303.6549072265625 76.240234375 340.5848388671875 109.9051513671875Q377.5147705078125 143.570068359375 377.5147705078125 201.389892578125V211.8798828125H238.2650146484375Q199.10009765625 211.8798828125 175.54766845703125 195.04241943359375Q151.9952392578125 178.2049560546875 151.9952392578125 146.3050537109375Q151.9952392578125 114.4051513671875 176.54766845703125 95.32269287109375Q201.10009765625 76.240234375 244.7750244140625 76.240234375Z"/>
<path transform="translate(397.39,0) scale(0.13200,-0.13200)" d="M276.85986328125 -14Q216.389892578125 -14 164.52239990234375 15.7449951171875Q112.6549072265625 45.489990234375 81.53240966796875 102.36749267578125Q50.409912109375 159.2449951171875 50.409912109375 239.2650146484375V254.2850341796875Q50.409912109375 334.3050537109375 81.409912109375 391.18255615234375Q112.409912109375 448.06005859375 164.02239990234375 477.8050537109375Q215.6348876953125 507.550048828125 276.85986328125 507.550048828125Q324.0648193359375 507.550048828125 356.15728759765625 496.070068359375Q388.249755859375 484.590087890625 408.35223388671875 466.99761962890625Q428.4547119140625 449.4051513671875 439.189697265625 429.690185546875H455.7197265625V700H565.550048828125V0H457.7197265625V67.1048583984375H441.189697265625Q423.209716796875 36.1649169921875 385.5047607421875 11.08245849609375Q347.7998046875 -14 276.85986328125 -14ZM308.97998046875 82.2802734375Q373.1048583984375 82.2802734375 415.16729736328125 123.57769775390625Q457.229736328125 164.8751220703125 457.229736328125 242.02001953125V251.530029296875Q457.229736328125 328.6749267578125 415.5447998046875 369.97235107421875Q373.85986328125 411.269775390625 308.97998046875 411.269775390625Q245.10009765625 411.269775390625 202.9151611328125 369.97235107421875Q160.730224609375 328.6749267578125 160.730224609375 251.530029296875V242.02001953125Q160.730224609375 164.8751220703125 202.9151611328125 123.57769775390625Q245.10009765625 82.2802734375 308.97998046875 82.2802734375Z"/>
<path transform="translate(485.87,0) scale(0.13200,-0.13200)" d="M299.919921875 -14Q225.6749267578125 -14 169.419921875 17.5Q113.1649169921875 49 81.78741455078125 106.37750244140625Q50.409912109375 163.7550048828125 50.409912109375 240.7750244140625V252.7750244140625Q50.409912109375 330.0400390625 81.409912109375 387.2950439453125Q112.409912109375 444.550048828125 168.04241943359375 476.050048828125Q223.6749267578125 507.550048828125 296.6949462890625 507.550048828125Q368.469970703125 507.550048828125 422.10247802734375 476.030029296875Q475.7349853515625 444.510009765625 505.7349853515625 387.989990234375Q535.7349853515625 331.469970703125 535.7349853515625 255.9599609375V215.6549072265625H161.750244140625Q163.9952392578125 154.8551025390625 204.03765869140625 118.56768798828125Q244.080078125 82.2802734375 302.93994140625 82.2802734375Q359.6148681640625 82.2802734375 387.67730712890625 107.240234375Q415.73974609375 132.2001953125 430.4547119140625 164.3651123046875L521.449951171875 117.7149658203125Q507.2049560546875 90 480.7049560546875 59.2550048828125Q454.2049560546875 28.510009765625 410.6949462890625 7.2550048828125Q367.1849365234375 -14 299.919921875 -14ZM162.750244140625 299.3651123046875H424.149658203125Q420.149658203125 351.1849365234375 385.60723876953125 381.22735595703125Q351.0648193359375 411.269775390625 295.93994140625 411.269775390625Q239.550048828125 411.269775390625 205.14013671875 381.22735595703125Q170.730224609375 351.1849365234375 162.750244140625 299.3651123046875Z"/>
<path transform="translate(566.69,0) scale(0.13200,-0.13200)" d="M74.409912109375 0V493.550048828125H182.240234375V436.3250732421875H198.770263671875Q210.5052490234375 467.06005859375 236.4952392578125 481.3050537109375Q262.4852294921875 495.550048828125 300.16015625 495.550048828125H359.4251708984375V397.269775390625H296.9351806640625Q247.22021484375 397.269775390625 215.730224609375 370.42230224609375Q184.240234375 343.5748291015625 184.240234375 287.389892578125V0Z"/>
<path transform="translate(622.04,0) scale(0.13200,-0.13200)" d="M130.1248779296875 -200V-103.7197265625H403.5548095703125Q432.0447998046875 -103.7197265625 432.0447998046875 -73.7197265625V69.6549072265625H415.5147705078125Q406.5347900390625 50.93994140625 388.43231201171875 32.83746337890625Q370.329833984375 14.7349853515625 339.98236083984375 3.12249755859375Q309.6348876953125 -8.489990234375 262.919921875 -8.489990234375Q206.389892578125 -8.489990234375 162.6448974609375 16.90753173828125Q118.89990234375 42.3050537109375 94.28741455078125 88.570068359375Q69.6749267578125 134.8350830078125 69.6749267578125 197.3050537109375V493.550048828125H179.5052490234375V205.8350830078125Q179.5052490234375 144.2001953125 210.06768798828125 114.4852294921875Q240.630126953125 84.770263671875 295.550048828125 84.770263671875Q357.7149658203125 84.770263671875 394.1248779296875 125.84271240234375Q430.5347900390625 166.9151611328125 430.5347900390625 243.510009765625V493.550048828125H540.3651123046875V-96.81982421875Q540.3651123046875 -144.1448974609375 512.9375610351562 -172.07244873046875Q485.510009765625 -200 438.2049560546875 -200Z"/>
  </g>
</g>
<rect x="36" y="728" width="928" height="196" rx="20" fill="#fff" stroke="#E6E9F2" stroke-width="1.5"/>
<text x="62" y="766" font-family="ui-sans-serif, 'DejaVu Sans', system-ui, sans-serif" font-size="15" font-weight="700" letter-spacing="1.5" fill="#64748B" text-anchor="start">MONOCHROME  ·  SMALL SIZES</text>
<g transform="translate(96,786) scale(1.02)">
  <rect x="12" y="12" width="64" height="64" rx="17" fill="none" stroke="#0F172A" stroke-width="5"/>
  <rect x="32" y="32" width="64" height="64" rx="17" fill="#fff" stroke="#0F172A" stroke-width="5"/>
  <rect x="52" y="52" width="64" height="64" rx="17" fill="#fff" stroke="#0F172A" stroke-width="5"/>
  <path d="M75 97 L93 71" stroke="#0F172A" stroke-width="6" stroke-linecap="round"/>
</g>
<g transform="translate(396,800.0) scale(0.5)">
  <rect x="10" y="10" width="66" height="66" rx="18" fill="#4F46E5" stroke="#fff" stroke-width="4"/>
  <rect x="31" y="31" width="66" height="66" rx="18" fill="#3B82F6" stroke="#fff" stroke-width="4"/>
  <rect x="52" y="52" width="66" height="66" rx="18" fill="#06B6D4" stroke="#fff" stroke-width="4"/>
</g>
<text x="428.0" y="902" font-family="ui-sans-serif, 'DejaVu Sans', system-ui, sans-serif" font-size="11" font-weight="500" letter-spacing="0" fill="#64748B" text-anchor="middle">64px</text>
<g transform="translate(494,810.0) scale(0.34375)">
  <rect x="10" y="10" width="66" height="66" rx="18" fill="#4F46E5" stroke="#fff" stroke-width="4"/>
  <rect x="31" y="31" width="66" height="66" rx="18" fill="#3B82F6" stroke="#fff" stroke-width="4"/>
  <rect x="52" y="52" width="66" height="66" rx="18" fill="#06B6D4" stroke="#fff" stroke-width="4"/>
</g>
<text x="516.0" y="902" font-family="ui-sans-serif, 'DejaVu Sans', system-ui, sans-serif" font-size="11" font-weight="500" letter-spacing="0" fill="#64748B" text-anchor="middle">44px</text>
<g transform="translate(572,816.0) scale(0.25)">
  <rect x="10" y="10" width="66" height="66" rx="18" fill="#4F46E5" stroke="#fff" stroke-width="4"/>
  <rect x="31" y="31" width="66" height="66" rx="18" fill="#3B82F6" stroke="#fff" stroke-width="4"/>
  <rect x="52" y="52" width="66" height="66" rx="18" fill="#06B6D4" stroke="#fff" stroke-width="4"/>
</g>
<text x="588.0" y="902" font-family="ui-sans-serif, 'DejaVu Sans', system-ui, sans-serif" font-size="11" font-weight="500" letter-spacing="0" fill="#64748B" text-anchor="middle">32px</text>
<g transform="translate(638,822.0) scale(0.15625)">
  <rect x="10" y="10" width="66" height="66" rx="18" fill="#4F46E5" stroke="#fff" stroke-width="4"/>
  <rect x="31" y="31" width="66" height="66" rx="18" fill="#3B82F6" stroke="#fff" stroke-width="4"/>
  <rect x="52" y="52" width="66" height="66" rx="18" fill="#06B6D4" stroke="#fff" stroke-width="4"/>
</g>
<text x="648.0" y="902" font-family="ui-sans-serif, 'DejaVu Sans', system-ui, sans-serif" font-size="11" font-weight="500" letter-spacing="0" fill="#64748B" text-anchor="middle">20px</text>
<rect x="36" y="948" width="928" height="224" rx="20" fill="#fff" stroke="#E6E9F2" stroke-width="1.5"/>
<text x="62" y="986" font-family="ui-sans-serif, 'DejaVu Sans', system-ui, sans-serif" font-size="15" font-weight="700" letter-spacing="1.5" fill="#64748B" text-anchor="start">ALTERNATE DIRECTIONS</text>
<g transform="translate(156,1014) scale(0.95)">
  <rect x="12" y="12" width="104" height="104" rx="26" fill="none" stroke="#4F46E5" stroke-width="6.5"/>
  <rect x="33" y="33" width="62" height="62" rx="17" fill="none" stroke="#3B82F6" stroke-width="6.5"/>
  <rect x="50" y="50" width="28" height="28" rx="9" fill="#06B6D4"/>
</g>
<text x="216" y="1150" font-family="ui-sans-serif, 'DejaVu Sans', system-ui, sans-serif" font-size="13" font-weight="600" letter-spacing="0" fill="#0F172A" text-anchor="middle">Nested Areas</text>
<g transform="translate(556,1014) scale(0.95)">
  <rect x="22" y="34" width="62" height="13" rx="6.5" fill="#4F46E5"/>
  <rect x="40" y="58" width="58" height="13" rx="6.5" fill="#3B82F6"/>
  <rect x="58" y="82" width="48" height="13" rx="6.5" fill="#06B6D4"/>
  <circle cx="16" cy="40.5" r="4.5" fill="#4F46E5"/>
  <circle cx="34" cy="64.5" r="4.5" fill="#3B82F6"/>
  <circle cx="52" cy="88.5" r="4.5" fill="#06B6D4"/>
</g>
<text x="616" y="1150" font-family="ui-sans-serif, 'DejaVu Sans', system-ui, sans-serif" font-size="13" font-weight="600" letter-spacing="0" fill="#0F172A" text-anchor="middle">Cascade lines</text>
<line x1="500.0" y1="978" x2="500.0" y2="1142" stroke="#E6E9F2" stroke-width="1.5"/>
<rect x="36" y="1196" width="928" height="144" rx="20" fill="#fff" stroke="#E6E9F2" stroke-width="1.5"/>
<text x="62" y="1234" font-family="ui-sans-serif, 'DejaVu Sans', system-ui, sans-serif" font-size="15" font-weight="700" letter-spacing="1.5" fill="#64748B" text-anchor="start">PALETTE  ·  TYPE</text>
<rect x="62" y="1254" width="64" height="48" rx="10" fill="#4F46E5" stroke="#E6E9F2" stroke-width="1"/>
<text x="62" y="1318" font-family="ui-sans-serif, 'DejaVu Sans', system-ui, sans-serif" font-size="12" font-weight="600" letter-spacing="0" fill="#0F172A" text-anchor="start">#4F46E5</text>
<rect x="212" y="1254" width="64" height="48" rx="10" fill="#3B82F6" stroke="#E6E9F2" stroke-width="1"/>
<text x="212" y="1318" font-family="ui-sans-serif, 'DejaVu Sans', system-ui, sans-serif" font-size="12" font-weight="600" letter-spacing="0" fill="#0F172A" text-anchor="start">#3B82F6</text>
<rect x="362" y="1254" width="64" height="48" rx="10" fill="#06B6D4" stroke="#E6E9F2" stroke-width="1"/>
<text x="362" y="1318" font-family="ui-sans-serif, 'DejaVu Sans', system-ui, sans-serif" font-size="12" font-weight="600" letter-spacing="0" fill="#0F172A" text-anchor="start">#06B6D4</text>
<rect x="512" y="1254" width="64" height="48" rx="10" fill="#0F172A" stroke="#E6E9F2" stroke-width="1"/>
<text x="512" y="1318" font-family="ui-sans-serif, 'DejaVu Sans', system-ui, sans-serif" font-size="12" font-weight="600" letter-spacing="0" fill="#0F172A" text-anchor="start">#0F172A</text>
<text x="938" y="1268" font-family="ui-sans-serif, 'DejaVu Sans', system-ui, sans-serif" font-size="14" font-weight="600" letter-spacing="0" fill="#0F172A" text-anchor="end">Space Grotesk</text>
<text x="938" y="1292" font-family="ui-sans-serif, 'DejaVu Sans', system-ui, sans-serif" font-size="12" font-weight="400" letter-spacing="0" fill="#64748B" text-anchor="end">wordmark · medium, outlined</text>
</svg>